<svg width="3253" height="511" viewBox="0 0 3253 511" fill="none" xmlns="http://www.w3.org/2000/svg">
<path d="M3017.24 397.957H2913.02V92.1807H3019.18C3049.54 92.1807 3075.67 98.3022 3097.56 110.545C3119.46 122.689 3136.28 140.157 3148.03 162.951C3159.77 185.745 3165.65 213.018 3165.65 244.77C3165.65 276.622 3159.73 303.995 3147.88 326.888C3136.13 349.782 3119.16 367.35 3096.97 379.593C3074.87 391.836 3048.29 397.957 3017.24 397.957ZM2969.46 349.284H3014.55C3035.55 349.284 3053.12 345.452 3067.26 337.787C3081.39 330.024 3091.99 318.428 3099.06 302.999C3106.22 287.571 3109.81 268.162 3109.81 244.77C3109.81 221.479 3106.27 202.169 3099.21 186.84C3092.14 171.412 3081.64 159.915 3067.7 152.351C3053.77 144.686 3036.55 140.854 3016.04 140.854H2969.46V349.284Z" fill="#F8F7F2"/>
<path d="M2664.69 397.957H2604.67L2712.17 92.1807H2781.9L2889.4 397.957H2829.38L2748.31 155.635H2745.92L2664.69 397.957ZM2666.04 278.065H2827.59V323.156H2666.04V278.065Z" fill="#F8F7F2"/>
<path d="M2581.21 92.1807V397.957H2524.77V92.1807H2581.21Z" fill="#F8F7F2"/>
<path d="M2267.43 397.957V92.1807H2382.84C2406.23 92.1807 2425.94 96.2617 2441.97 104.424C2457.99 112.586 2470.14 124.032 2478.4 138.764C2486.66 153.495 2490.79 170.665 2490.79 190.274C2490.79 209.883 2486.61 226.904 2478.25 241.336C2469.89 255.67 2457.59 266.768 2441.37 274.631C2425.24 282.395 2405.44 286.277 2381.95 286.277H2300.28V239.843H2374.18C2387.72 239.843 2398.82 237.952 2407.48 234.17C2416.24 230.288 2422.71 224.664 2426.89 217.298C2431.17 209.933 2433.31 200.925 2433.31 190.274C2433.31 179.425 2431.17 170.217 2426.89 162.653C2422.71 154.988 2416.24 149.165 2407.48 145.184C2398.72 141.103 2387.52 139.062 2373.88 139.062H2323.87V397.957H2267.43ZM2426.14 259.402L2501.99 397.957H2439.13L2364.78 259.402H2426.14Z" fill="#F8F7F2"/>
<path d="M2237.83 139.36H2143.47V397.956H2087.63V139.36H1993.27V92.1797H2143.04V138.96L2182.92 92.1819L2182.93 92.1797H2237.83V139.36Z" fill="#F8F7F2"/>
<path d="M1974.88 139.38H1880.51V397.977H1824.67V139.38H1730.31V92.1999H1880.07V138.979L1919.95 92.2014L1919.95 92.1999H1974.88V139.38Z" fill="#F8F7F2"/>
<path d="M1488 397.957V92.1807H1603.42C1626.81 92.1807 1646.52 96.2617 1662.54 104.424C1678.57 112.586 1690.71 124.032 1698.97 138.764C1707.23 153.495 1711.36 170.665 1711.36 190.274C1711.36 209.883 1707.18 226.904 1698.82 241.336C1690.46 255.67 1678.17 266.768 1661.94 274.631C1645.82 282.395 1626.01 286.277 1602.52 286.277H1520.85V239.843H1594.76C1608.29 239.843 1619.39 237.952 1628.05 234.17C1636.81 230.288 1643.28 224.664 1647.46 217.298C1651.74 209.933 1653.88 200.925 1653.88 190.274C1653.88 179.425 1651.74 170.217 1647.46 162.653C1643.28 154.988 1636.81 149.165 1628.05 145.184C1619.29 141.103 1608.09 139.062 1594.46 139.062H1544.44V397.957H1488ZM1646.71 259.402L1722.56 397.957H1659.7L1585.35 259.402H1646.71Z" fill="#F8F7F2"/>
<path d="M1452.63 245.069C1452.63 278.115 1446.45 306.334 1434.11 329.725C1421.77 353.116 1405 371.033 1383.8 383.475C1362.59 395.917 1338.61 402.138 1311.83 402.138C1285.06 402.138 1261.07 395.917 1239.87 383.475C1218.66 370.933 1201.89 352.967 1189.55 329.576C1177.31 306.184 1171.19 278.015 1171.19 245.069C1171.19 212.023 1177.31 183.804 1189.55 160.413C1201.89 137.022 1218.66 119.105 1239.87 106.663C1261.07 94.221 1285.06 88 1311.83 88C1338.61 88 1362.59 94.221 1383.8 106.663C1405 119.105 1421.77 137.022 1434.11 160.413C1446.45 183.804 1452.63 212.023 1452.63 245.069ZM1395.89 245.069C1395.89 221.976 1392.31 202.517 1385.14 186.691C1378.07 170.864 1368.22 158.87 1355.58 150.708C1342.94 142.546 1328.35 138.465 1311.83 138.465C1295.31 138.465 1280.73 142.546 1268.08 150.708C1255.44 158.87 1245.54 170.864 1238.37 186.691C1231.31 202.517 1227.77 221.976 1227.77 245.069C1227.77 268.161 1231.31 287.621 1238.37 303.447C1245.54 319.273 1255.44 331.268 1268.08 339.43C1280.73 347.592 1295.31 351.673 1311.83 351.673C1328.35 351.673 1342.94 347.592 1355.58 339.43C1368.22 331.268 1378.07 319.273 1385.14 303.447C1392.31 287.621 1395.89 268.161 1395.89 245.069Z" fill="#F8F7F2"/>
<path d="M924.421 397.957V92.1807H1039.83C1063.23 92.1807 1082.93 96.5603 1098.96 105.32C1114.98 114.079 1127.13 126.123 1135.39 141.451C1143.65 156.68 1147.78 174.099 1147.78 193.708C1147.78 213.317 1143.6 230.786 1135.24 246.114C1126.98 261.343 1114.74 273.337 1098.51 282.097C1082.39 290.756 1062.53 295.086 1038.94 295.086H962.793V248.951H1031.17C1044.81 248.951 1055.96 246.612 1064.62 241.934C1073.28 237.156 1079.7 230.636 1083.88 222.375C1088.16 214.014 1090.3 204.458 1090.3 193.708C1090.3 182.958 1088.16 173.502 1083.88 165.34C1079.7 157.079 1073.23 150.658 1064.47 146.08C1055.81 141.402 1044.61 139.062 1030.88 139.062H980.859V397.957H924.421Z" fill="#F8F7F2"/>
<path d="M834.225 176.687C832.832 163.747 827.009 153.694 816.756 146.528C806.604 139.261 793.365 135.628 777.041 135.628C765.595 135.628 755.79 137.32 747.628 140.705C739.466 144.089 733.195 148.767 728.816 154.739C724.536 160.612 722.396 167.331 722.396 174.896C722.296 181.166 723.69 186.641 726.576 191.319C729.562 195.898 733.544 199.78 738.521 202.965C743.497 206.15 749.022 208.838 755.093 211.027C761.265 213.217 767.536 215.059 773.906 216.552L802.423 223.718C814.168 226.406 825.416 230.089 836.166 234.767C846.916 239.346 856.521 245.119 864.982 252.086C873.443 259.054 880.111 267.465 884.989 277.319C889.966 287.173 892.454 298.719 892.454 311.958C892.454 329.974 887.826 345.8 878.569 359.437C869.411 372.974 856.173 383.574 838.854 391.239C821.634 398.803 800.781 402.586 776.295 402.586C752.406 402.586 731.653 398.903 714.035 391.537C696.516 384.072 682.83 373.272 672.976 359.138C663.121 344.904 657.796 327.535 657 307.03H712.392C713.188 317.681 716.423 326.54 722.097 333.607C727.771 340.574 735.236 345.85 744.493 349.433C753.849 352.917 764.251 354.659 775.698 354.659C787.642 354.659 798.093 352.867 807.052 349.284C816.109 345.601 823.177 340.525 828.253 334.055C833.429 327.585 836.017 320.12 836.017 311.659C836.017 303.796 833.727 297.276 829.149 292.1C824.67 286.924 818.349 282.594 810.187 279.11C802.025 275.527 792.42 272.342 781.371 269.555L746.882 260.597C721.599 254.127 701.642 244.322 687.01 231.184C672.378 217.945 665.112 200.377 665.212 178.479C665.112 160.363 669.94 144.537 679.694 131C689.548 117.463 702.986 106.912 720.007 99.3472C737.028 91.7824 756.238 88 777.638 88C799.437 88 818.548 91.7824 834.972 99.3472C851.495 106.812 864.434 117.214 873.791 130.552C883.147 143.89 887.975 159.268 888.273 176.687H834.225Z" fill="#F8F7F2"/>
<g clip-path="url(#clip0_3069_41)">
<path d="M134.501 94.3214C134.501 87.777 141.38 83.5139 147.241 86.4265L566.018 294.549C569.015 296.039 570.91 299.097 570.91 302.444L570.91 390.781C570.91 397.319 564.043 401.583 558.183 398.682L139.406 191.402C136.402 189.915 134.501 186.853 134.501 183.501L134.501 94.3214Z" fill="#F8F7F2"/>
<path d="M128.443 376.148C128.857 372.609 131.36 369.667 134.787 368.692L350.336 307.355C356.527 305.593 362.457 310.844 361.459 317.202L348.167 401.855C347.651 405.147 345.321 407.866 342.148 408.883L129.187 477.104C123.082 479.06 116.997 474.052 117.741 467.684L128.443 376.148Z" fill="#F8F7F2"/>
<path d="M297.599 50.9717C299.019 48.0083 301.969 46.0806 305.253 45.9701L548.688 37.7796C555.052 37.5654 559.537 43.9617 557.167 49.8718L526.944 125.249C525.603 128.593 522.363 130.785 518.761 130.785L273.356 130.785C266.867 130.785 262.601 124.011 265.406 118.159L297.599 50.9717Z" fill="#F8F7F2"/>
</g>
<defs>
<clipPath id="clip0_3069_41">
<rect width="511" height="511" fill="white" transform="translate(87)"/>
</clipPath>
</defs>
</svg>
