<svg width="650" height="650" viewBox="0 0 650 650" fill="none" xmlns="http://www.w3.org/2000/svg">
<g clip-path="url(#clip0_3069_40)">
<path d="M60.4219 119.978C60.4219 111.653 69.1723 106.23 76.6271 109.935L609.318 374.671C613.13 376.566 615.541 380.456 615.541 384.713L615.541 497.079C615.541 505.396 606.806 510.819 599.352 507.129L66.6616 243.466C62.8401 241.575 60.4219 237.68 60.4219 233.416L60.4219 119.978Z" fill="#F8F7F2"/>
<path d="M52.7161 478.47C53.2424 473.969 56.4263 470.227 60.7853 468.986L334.967 390.965C342.842 388.724 350.385 395.403 349.115 403.49L332.209 511.17C331.551 515.358 328.588 518.817 324.551 520.11L53.6623 606.888C45.896 609.376 38.1556 603.006 39.1026 594.906L52.7161 478.47Z" fill="#F8F7F2"/>
<path d="M267.885 64.8386C269.691 61.0692 273.443 58.6171 277.621 58.4765L587.274 48.0581C595.369 47.7857 601.074 55.9218 598.06 63.4396L559.615 159.321C557.91 163.574 553.788 166.362 549.206 166.362L237.047 166.362C228.793 166.362 223.367 157.746 226.934 150.302L267.885 64.8386Z" fill="#F8F7F2"/>
</g>
<defs>
<clipPath id="clip0_3069_40">
<rect width="650" height="650" fill="white"/>
</clipPath>
</defs>
</svg>
