<svg width="2683" height="511" viewBox="0 0 2683 511" fill="none" xmlns="http://www.w3.org/2000/svg">
<path d="M2447.24 397.957H2343.02V92.1807H2449.18C2479.54 92.1807 2505.67 98.3022 2527.56 110.545C2549.46 122.689 2566.28 140.157 2578.03 162.951C2589.77 185.745 2595.65 213.018 2595.65 244.77C2595.65 276.622 2589.73 303.995 2577.88 326.888C2566.13 349.782 2549.16 367.35 2526.97 379.593C2504.87 391.836 2478.29 397.957 2447.24 397.957ZM2399.46 349.284H2444.55C2465.55 349.284 2483.12 345.452 2497.26 337.787C2511.39 330.024 2521.99 318.428 2529.06 302.999C2536.22 287.571 2539.81 268.162 2539.81 244.77C2539.81 221.479 2536.27 202.169 2529.21 186.84C2522.14 171.412 2511.64 159.915 2497.7 152.351C2483.77 144.686 2466.55 140.854 2446.04 140.854H2399.46V349.284Z" fill="#F8F7F2"/>
<path d="M2094.69 397.957H2034.67L2142.17 92.1807H2211.9L2319.4 397.957H2259.38L2178.31 155.635H2175.92L2094.69 397.957ZM2096.04 278.065H2257.59V323.156H2096.04V278.065Z" fill="#F8F7F2"/>
<path d="M2011.21 92.1807V397.957H1954.77V92.1807H2011.21Z" fill="#F8F7F2"/>
<path d="M1697.43 397.957V92.1807H1812.84C1836.23 92.1807 1855.94 96.2617 1871.97 104.424C1887.99 112.586 1900.14 124.032 1908.4 138.764C1916.66 153.495 1920.79 170.665 1920.79 190.274C1920.79 209.883 1916.61 226.904 1908.25 241.336C1899.89 255.67 1887.59 266.768 1871.37 274.631C1855.24 282.395 1835.44 286.277 1811.95 286.277H1730.28V239.843H1804.18C1817.72 239.843 1828.82 237.952 1837.48 234.17C1846.24 230.288 1852.71 224.664 1856.89 217.298C1861.17 209.933 1863.31 200.925 1863.31 190.274C1863.31 179.425 1861.17 170.217 1856.89 162.653C1852.71 154.988 1846.24 149.165 1837.48 145.184C1828.72 141.103 1817.52 139.062 1803.88 139.062H1753.87V397.957H1697.43ZM1856.14 259.402L1931.99 397.957H1869.13L1794.78 259.402H1856.14Z" fill="#F8F7F2"/>
<path d="M1667.83 139.36H1573.47V397.956H1517.63V139.36H1423.27V92.1797H1573.04V138.96L1612.92 92.1819L1612.93 92.1797H1667.83V139.36Z" fill="#F8F7F2"/>
<path d="M1404.88 139.38H1310.51V397.977H1254.67V139.38H1160.31V92.1999H1310.07V138.979L1349.95 92.2014L1349.95 92.1999H1404.88V139.38Z" fill="#F8F7F2"/>
<path d="M918.004 397.957V92.1807H1033.42C1056.81 92.1807 1076.52 96.2617 1092.54 104.424C1108.57 112.586 1120.71 124.032 1128.97 138.764C1137.23 153.495 1141.36 170.665 1141.36 190.274C1141.36 209.883 1137.18 226.904 1128.82 241.336C1120.46 255.67 1108.17 266.768 1091.94 274.631C1075.82 282.395 1056.01 286.277 1032.52 286.277H950.851V239.843H1024.76C1038.29 239.843 1049.39 237.952 1058.05 234.17C1066.81 230.288 1073.28 224.664 1077.46 217.298C1081.74 209.933 1083.88 200.925 1083.88 190.274C1083.88 179.425 1081.74 170.217 1077.46 162.653C1073.28 154.988 1066.81 149.165 1058.05 145.184C1049.29 141.103 1038.09 139.062 1024.46 139.062H974.441V397.957H918.004ZM1076.71 259.402L1152.56 397.957H1089.7L1015.35 259.402H1076.71Z" fill="#F8F7F2"/>
<path d="M882.626 245.069C882.626 278.115 876.454 306.334 864.112 329.725C851.769 353.116 834.997 371.033 813.796 383.475C792.595 395.917 768.606 402.138 741.831 402.138C715.055 402.138 691.067 395.917 669.866 383.475C648.664 370.933 631.893 352.967 619.55 329.576C607.307 306.184 601.185 278.015 601.185 245.069C601.185 212.023 607.307 183.804 619.55 160.413C631.893 137.022 648.664 119.105 669.866 106.663C691.067 94.221 715.055 88 741.831 88C768.606 88 792.595 94.221 813.796 106.663C834.997 119.105 851.769 137.022 864.112 160.413C876.454 183.804 882.626 212.023 882.626 245.069ZM825.89 245.069C825.89 221.976 822.307 202.517 815.14 186.691C808.073 170.864 798.219 158.87 785.577 150.708C772.936 142.546 758.354 138.465 741.831 138.465C725.308 138.465 710.726 142.546 698.084 150.708C685.443 158.87 675.539 170.864 668.373 186.691C661.306 202.517 657.772 221.976 657.772 245.069C657.772 268.161 661.306 287.621 668.373 303.447C675.539 319.273 685.443 331.268 698.084 339.43C710.726 347.592 725.308 351.673 741.831 351.673C758.354 351.673 772.936 347.592 785.577 339.43C798.219 331.268 808.073 319.273 815.14 303.447C822.307 287.621 825.89 268.161 825.89 245.069Z" fill="#F8F7F2"/>
<path d="M354.421 397.957V92.1807H469.834C493.225 92.1807 512.934 96.5603 528.959 105.32C544.984 114.079 557.128 126.123 565.389 141.451C573.651 156.68 577.782 174.099 577.782 193.708C577.782 213.317 573.601 230.786 565.24 246.114C556.979 261.343 544.735 273.337 528.511 282.097C512.386 290.756 492.529 295.086 468.938 295.086H392.793V248.951H461.175C474.811 248.951 485.959 246.612 494.619 241.934C503.279 237.156 509.699 230.636 513.879 222.375C518.159 214.014 520.299 204.458 520.299 193.708C520.299 182.958 518.159 173.502 513.879 165.34C509.699 157.079 503.229 150.658 494.47 146.08C485.81 141.402 474.612 139.062 460.876 139.062H410.859V397.957H354.421Z" fill="#F8F7F2"/>
<path d="M264.225 176.687C262.832 163.747 257.009 153.694 246.756 146.528C236.604 139.261 223.365 135.628 207.041 135.628C195.595 135.628 185.79 137.32 177.628 140.705C169.466 144.089 163.195 148.767 158.816 154.739C154.536 160.612 152.396 167.331 152.396 174.896C152.296 181.166 153.69 186.641 156.576 191.319C159.562 195.898 163.544 199.78 168.521 202.965C173.497 206.15 179.022 208.838 185.093 211.027C191.265 213.217 197.536 215.059 203.906 216.552L232.423 223.718C244.168 226.406 255.416 230.089 266.166 234.767C276.916 239.346 286.521 245.119 294.982 252.086C303.443 259.054 310.111 267.465 314.989 277.319C319.966 287.173 322.454 298.719 322.454 311.958C322.454 329.974 317.826 345.8 308.569 359.437C299.411 372.974 286.173 383.574 268.854 391.239C251.634 398.803 230.781 402.586 206.295 402.586C182.406 402.586 161.653 398.903 144.035 391.537C126.516 384.072 112.83 373.272 102.976 359.138C93.1215 344.904 87.7963 327.535 87 307.03H142.392C143.188 317.681 146.423 326.54 152.097 333.607C157.771 340.574 165.236 345.85 174.493 349.433C183.849 352.917 194.251 354.659 205.698 354.659C217.642 354.659 228.093 352.867 237.052 349.284C246.109 345.601 253.177 340.525 258.253 334.055C263.429 327.585 266.017 320.12 266.017 311.659C266.017 303.796 263.727 297.276 259.149 292.1C254.67 286.924 248.349 282.594 240.187 279.11C232.025 275.527 222.42 272.342 211.371 269.555L176.882 260.597C151.599 254.127 131.642 244.322 117.01 231.184C102.378 217.945 95.1122 200.377 95.2118 178.479C95.1122 160.363 99.9397 144.537 109.694 131C119.548 117.463 132.986 106.912 150.007 99.3472C167.028 91.7824 186.238 88 207.638 88C229.437 88 248.548 91.7824 264.972 99.3472C281.495 106.812 294.434 117.214 303.791 130.552C313.147 143.89 317.975 159.268 318.273 176.687H264.225Z" fill="#F8F7F2"/>
</svg>
